<svg width="18" height="19" viewBox="0 0 18 19" fill="none" xmlns="http://www.w3.org/2000/svg">
<path d="M9.075 16.7095C12.8443 16.7095 15.9 13.6538 15.9 9.88448C15.9 6.11514 12.8443 3.05948 9.075 3.05948C5.30566 3.05948 2.25 6.11514 2.25 9.88448C2.25 13.6538 5.30566 16.7095 9.075 16.7095Z" fill="#58AA46" fill-opacity="0.9"/>
<path d="M11.25 7.55948L9 9.80948M9 9.80948L6.75 12.0595M9 9.80948L6.75 7.55948M9 9.80948L11.25 12.0595M15.9 9.88448C15.9 13.6538 12.8443 16.7095 9.075 16.7095C5.30566 16.7095 2.25 13.6538 2.25 9.88448C2.25 6.11514 5.30566 3.05948 9.075 3.05948C12.8443 3.05948 15.9 6.11514 15.9 9.88448Z" stroke="white" stroke-linecap="round"/>
</svg>
